<?xml version="1.0" standalone="no"?>
<!DOCTYPE svg PUBLIC "-//W3C//DTD SVG 20010904//EN"
 "http://www.w3.org/TR/2001/REC-SVG-20010904/DTD/svg10.dtd">
<svg version="1.0" xmlns="http://www.w3.org/2000/svg"
 width="624.000000pt" height="624.000000pt" viewBox="0 0 624.000000 624.000000"
 preserveAspectRatio="xMidYMid meet">
<metadata>
Created by potrace 1.14, written by Peter Selinger 2001-2017
</metadata>
<g transform="translate(0.000000,624.000000) scale(0.100000,-0.100000)"
fill="#000000" stroke="none">
<path d="M2887 5734 c-2 -3 -17 -7 -33 -10 -44 -9 -45 -9 -107 -28 -122 -36
-254 -112 -392 -227 -38 -32 -117 -95 -175 -141 -58 -46 -116 -93 -130 -105
-14 -12 -107 -87 -208 -167 -100 -80 -188 -150 -195 -156 -14 -12 -323 -259
-381 -305 -21 -16 -48 -38 -60 -49 -11 -10 -37 -30 -56 -45 -19 -14 -37 -28
-40 -31 -3 -3 -27 -24 -55 -45 -27 -22 -55 -44 -62 -50 -7 -5 -18 -15 -25 -20
-65 -50 -188 -154 -206 -173 -83 -88 -152 -210 -189 -335 l-27 -92 0 -1165 c0
-1302 -4 -1237 71 -1425 71 -178 191 -338 332 -443 20 -15 38 -29 41 -32 26
-26 217 -116 295 -139 141 -40 163 -42 520 -42 326 1 332 1 418 30 165 56 294
215 323 396 4 28 8 231 8 452 l2 401 36 54 c45 64 54 91 53 143 -4 105 -79
183 -185 192 -47 5 -66 1 -104 -18 -76 -38 -153 -152 -187 -279 -15 -56 -18
-116 -19 -455 0 -214 -3 -406 -5 -425 -3 -19 -16 -46 -30 -60 l-25 -25 -294
-2 c-261 -1 -302 1 -365 18 -94 25 -153 53 -221 103 -125 91 -202 205 -241
354 -20 75 -20 108 -21 1182 0 608 3 1121 6 1140 8 43 58 148 84 175 10 11 38
36 63 57 78 64 225 182 256 206 45 34 95 75 115 95 10 9 22 17 27 17 5 0 11 3
13 8 3 7 49 45 218 180 30 24 71 57 90 72 19 16 53 43 75 60 22 18 42 35 45
39 3 4 12 12 21 17 9 5 36 26 60 46 24 20 141 114 259 208 118 95 228 183 244
196 16 13 43 34 59 46 16 13 41 33 56 46 32 27 146 108 146 103 0 -2 18 4 40
14 94 41 247 52 345 25 25 -7 46 -12 48 -11 17 8 270 -160 312 -208 3 -3 25
-22 50 -41 25 -19 47 -38 48 -42 2 -4 8 -8 13 -8 5 0 17 -8 27 -17 10 -10 35
-31 56 -48 36 -28 403 -320 436 -348 8 -6 80 -64 160 -127 80 -63 147 -117
150 -120 3 -3 82 -66 175 -140 94 -74 175 -139 182 -145 22 -18 37 -30 89 -71
99 -78 145 -128 177 -193 l32 -66 2 -1135 c2 -1241 5 -1191 -56 -1324 -31 -68
-145 -216 -166 -216 -3 0 -18 -11 -32 -24 -48 -45 -240 -125 -264 -110 -5 3
-9 1 -9 -4 0 -14 -569 -14 -603 0 -52 21 -55 41 -55 454 0 208 -1 381 -2 384
-1 3 -3 25 -4 50 -8 106 -60 221 -137 301 -129 134 -340 59 -353 -126 -3 -37
15 -87 52 -143 l37 -55 1 -398 c1 -329 7 -480 19 -519 31 -98 144 -260 181
-260 8 0 14 -4 14 -9 0 -13 119 -68 176 -82 52 -12 624 -16 704 -4 182 25 386
112 520 221 87 72 197 200 245 289 15 28 31 55 35 60 8 12 61 152 61 162 0 2
5 17 10 35 12 42 19 78 27 153 8 63 7 2299 0 2325 -3 8 -8 33 -13 55 -20 102
-91 243 -169 333 -44 51 -68 73 -166 152 -24 19 -53 43 -64 52 -12 10 -84 68
-161 129 -77 61 -156 124 -175 139 -19 16 -51 41 -70 57 -20 15 -42 34 -50 40
-8 7 -121 97 -250 199 -129 103 -250 199 -268 213 -18 14 -43 34 -55 44 -12
10 -35 29 -52 43 -129 101 -213 168 -244 194 -119 98 -214 167 -278 205 -69
40 -214 95 -293 110 -41 8 -326 16 -333 9z"/>
<path d="M2270 3641 c-77 -19 -128 -76 -147 -161 -2 -8 -1 -38 2 -66 5 -40 14
-61 42 -93 68 -80 7 -75 848 -76 426 -1 766 3 788 8 20 5 52 24 71 41 92 86
94 219 4 303 -58 54 -39 53 -841 52 -408 -1 -753 -4 -767 -8z"/>
</g>
</svg>
