<svg width="130" height="43" viewBox="0 0 130 43" fill="none" xmlns="http://www.w3.org/2000/svg">
<path d="M8.63772 42.0686C8.30263 42.0686 7.97563 42.0643 7.64316 42.0568C6.95442 42.0478 6.2673 41.9879 5.58742 41.8774C4.95346 41.7682 4.33933 41.5651 3.76528 41.2748C3.1965 40.9869 2.67772 40.6094 2.22882 40.1567C1.77342 39.7094 1.39428 39.1906 1.10643 38.6208C0.815402 38.0473 0.613994 37.4327 0.509221 36.7982C0.396075 36.1164 0.334859 35.427 0.326099 34.736C0.319126 34.504 0.309998 33.7317 0.309998 33.7317V8.325C0.309998 8.325 0.31972 7.56456 0.326154 7.34116C0.334541 6.65121 0.395402 5.96291 0.508209 5.28219C0.613176 4.64596 0.81474 4.02951 1.10592 3.45416C1.39272 2.8848 1.76975 2.36558 2.22241 1.91665C2.67455 1.46346 3.19499 1.084 3.76474 0.79211C4.33748 0.502726 4.95045 0.30106 5.58312 0.193867C6.26523 0.0823072 6.95474 0.0219923 7.64586 0.013429L8.63826 0H121.666L122.671 0.0139679C123.355 0.0221058 124.039 0.0818825 124.715 0.192789C125.354 0.301326 125.973 0.5044 126.552 0.795332C127.694 1.38357 128.622 2.31422 129.208 3.45685C129.495 4.02822 129.693 4.63965 129.797 5.27038C129.911 5.95668 129.975 6.65039 129.988 7.34599C129.991 7.65747 129.991 7.99204 129.991 8.325C130 8.73744 130 9.13 130 9.52578V32.5438C130 32.9434 130 33.3333 129.991 33.7263C129.991 34.084 129.991 34.4116 129.987 34.7488C129.974 35.432 129.911 36.1134 129.799 36.7874C129.696 37.4265 129.496 38.0459 129.205 38.6241C128.915 39.1877 128.538 39.702 128.088 40.1481C127.639 40.6032 127.119 40.983 126.549 41.2727C125.971 41.5653 125.353 41.7691 124.715 41.8774C124.035 41.9884 123.348 42.0484 122.659 42.0568C122.337 42.0643 121.999 42.0686 121.672 42.0686L120.48 42.0708L8.63772 42.0686Z" fill="white"/>
<path d="M26.8419 20.9138C26.8542 19.9592 27.1077 19.0232 27.579 18.1929C28.0502 17.3626 28.7238 16.665 29.5371 16.165C29.0204 15.4272 28.3388 14.8199 27.5464 14.3915C26.7541 13.9632 25.8727 13.7254 24.9724 13.6973C23.0518 13.4957 21.1899 14.8465 20.2112 14.8465C19.2136 14.8465 17.7067 13.7173 16.0841 13.7507C15.0345 13.7846 14.0117 14.0898 13.1151 14.6365C12.2186 15.1833 11.479 15.953 10.9684 16.8706C8.75649 20.7002 10.4064 26.3284 12.5252 29.424C13.5853 30.9399 14.8243 32.6331 16.4454 32.573C18.0318 32.5072 18.6243 31.5614 20.5392 31.5614C22.4364 31.5614 22.9922 32.573 24.6463 32.5348C26.3486 32.5072 27.4211 31.0123 28.444 29.4821C29.2057 28.402 29.7918 27.2083 30.1806 25.9452C29.1916 25.5269 28.3477 24.8267 27.754 23.932C27.1602 23.0373 26.843 21.9876 26.8419 20.9138Z" fill="black"/>
<path d="M23.7178 11.6612C24.646 10.547 25.1032 9.11487 24.9925 7.66895C23.5745 7.81788 22.2647 8.49559 21.324 9.56706C20.864 10.0905 20.5118 10.6994 20.2873 11.3591C20.0629 12.0188 19.9706 12.7162 20.0159 13.4115C20.7252 13.4188 21.4268 13.2651 22.0681 12.9619C22.7093 12.6587 23.2734 12.214 23.7178 11.6612V11.6612Z" fill="black"/>
<path d="M45.8746 28.8871H40.6687L39.4185 32.5786H37.2134L42.1444 18.9209H44.4354L49.3664 32.5786H47.1237L45.8746 28.8871ZM41.2079 27.1836H45.3344L43.3001 21.1925H43.2432L41.2079 27.1836Z" fill="black"/>
<path d="M60.0156 27.6005C60.0156 30.6948 58.3594 32.6829 55.86 32.6829C55.2269 32.716 54.5973 32.5702 54.0432 32.2621C53.4891 31.954 53.033 31.4961 52.727 30.9408H52.6797V35.8728H50.6358V22.6212H52.6142V24.2774H52.6518C52.9718 23.7247 53.4356 23.2692 53.9939 22.9592C54.5523 22.6492 55.1842 22.4964 55.8224 22.517C58.3497 22.517 60.0156 24.5147 60.0156 27.6005ZM57.9147 27.6005C57.9147 25.5845 56.8729 24.2591 55.2833 24.2591C53.7216 24.2591 52.6712 25.6124 52.6712 27.6005C52.6712 29.6068 53.7216 30.9505 55.2833 30.9505C56.8729 30.9505 57.9147 29.6347 57.9147 27.6005H57.9147Z" fill="black"/>
<path d="M70.9758 27.6005C70.9758 30.6948 69.3191 32.6829 66.8197 32.6829C66.1866 32.716 65.557 32.5702 65.0029 32.2621C64.4488 31.954 63.9927 31.4961 63.6867 30.9408H63.6394V35.8728H61.5955V22.6212H63.5739V24.2774H63.6115C63.9315 23.7247 64.3953 23.2692 64.9537 22.9592C65.512 22.6492 66.1439 22.4964 66.7821 22.517C69.3094 22.517 70.9758 24.5147 70.9758 27.6005ZM68.8744 27.6005C68.8744 25.5845 67.8326 24.2591 66.243 24.2591C64.6813 24.2591 63.6309 25.6124 63.6309 27.6005C63.6309 29.6068 64.6813 30.9505 66.243 30.9505C67.8326 30.9505 68.8744 29.6347 68.8744 27.6005V27.6005Z" fill="black"/>
<path d="M78.2181 28.7734C78.3695 30.1278 79.6853 31.0171 81.4832 31.0171C83.206 31.0171 84.4455 30.1278 84.4455 28.9065C84.4455 27.8465 83.6979 27.2117 81.9279 26.7767L80.1579 26.3503C77.6499 25.7445 76.4857 24.5717 76.4857 22.6684C76.4857 20.312 78.5393 18.6934 81.4542 18.6934C84.3413 18.6934 86.3197 20.312 86.3863 22.6684H84.323C84.1995 21.3055 83.0728 20.4827 81.4263 20.4827C79.7798 20.4827 78.6531 21.3151 78.6531 22.5267C78.6531 23.4922 79.3727 24.0604 81.1331 24.4954L82.6378 24.8648C85.44 25.5275 86.6032 26.6532 86.6032 28.6509C86.6032 31.2061 84.569 32.8064 81.3317 32.8064C78.3029 32.8064 76.2579 31.2436 76.1258 28.7733L78.2181 28.7734Z" fill="black"/>
<path d="M91.0165 20.2656V22.6221H92.91V24.2407H91.0165V29.7302C91.0165 30.583 91.3956 30.9804 92.228 30.9804C92.4528 30.9765 92.6772 30.9607 92.9004 30.9331V32.542C92.5261 32.612 92.1458 32.6436 91.7651 32.6366C89.7491 32.6366 88.9629 31.8793 88.9629 29.9482V24.2407H87.5151V22.6221H88.9629V20.2656H91.0165Z" fill="black"/>
<path d="M94.0057 27.6012C94.0057 24.4682 95.851 22.4995 98.7283 22.4995C101.615 22.4995 103.452 24.4681 103.452 27.6012C103.452 30.7428 101.625 32.703 98.7283 32.703C95.8327 32.703 94.0057 30.7428 94.0057 27.6012ZM101.369 27.6012C101.369 25.452 100.385 24.1836 98.7283 24.1836C97.0722 24.1836 96.0872 25.4617 96.0872 27.6012C96.0872 29.759 97.0722 31.0178 98.7283 31.0178C100.385 31.0178 101.369 29.759 101.369 27.6012H101.369Z" fill="black"/>
<path d="M105.137 22.6211H107.087V24.3159H107.134C107.266 23.7866 107.576 23.3188 108.012 22.9912C108.448 22.6635 108.984 22.4961 109.529 22.5169C109.765 22.516 109.999 22.5416 110.229 22.5931V24.5049C109.932 24.4141 109.622 24.3724 109.311 24.3814C109.014 24.3694 108.718 24.4217 108.443 24.5349C108.168 24.6481 107.921 24.8193 107.719 25.037C107.517 25.2546 107.364 25.5135 107.271 25.7958C107.178 26.0781 107.147 26.3771 107.181 26.6724V32.5786H105.137L105.137 22.6211Z" fill="black"/>
<path d="M119.653 29.6548C119.378 31.4624 117.618 32.703 115.365 32.703C112.469 32.703 110.671 30.7621 110.671 27.6485C110.671 24.5251 112.478 22.4995 115.279 22.4995C118.034 22.4995 119.767 24.3919 119.767 27.4111V28.1114H112.734V28.2349C112.701 28.6014 112.747 28.9705 112.869 29.3179C112.99 29.6653 113.183 29.9829 113.437 30.2497C113.69 30.5164 113.997 30.7262 114.338 30.8651C114.679 31.0041 115.045 31.0689 115.413 31.0554C115.896 31.1006 116.38 30.9888 116.795 30.7364C117.209 30.4841 117.531 30.1047 117.712 29.6548L119.653 29.6548ZM112.744 26.6829H117.722C117.74 26.3534 117.69 26.0236 117.575 25.7144C117.46 25.4051 117.282 25.1229 117.053 24.8856C116.823 24.6483 116.548 24.461 116.242 24.3354C115.937 24.2097 115.609 24.1486 115.279 24.1556C114.947 24.1537 114.617 24.2176 114.309 24.3438C114.001 24.47 113.721 24.6559 113.485 24.8909C113.249 25.1259 113.062 25.4052 112.935 25.7128C112.808 26.0203 112.743 26.3501 112.744 26.6829V26.6829Z" fill="black"/>
<path d="M40.9524 8.64026C41.3809 8.60951 41.8109 8.67424 42.2114 8.8298C42.6118 8.98535 42.9728 9.22784 43.2682 9.53978C43.5636 9.85172 43.7861 10.2253 43.9196 10.6337C44.0531 11.042 44.0943 11.4749 44.0403 11.9011C44.0403 13.9976 42.9072 15.2028 40.9524 15.2028H38.582V8.64026H40.9524ZM39.6012 14.2747H40.8386C41.1447 14.293 41.4512 14.2428 41.7355 14.1277C42.0199 14.0127 42.275 13.8357 42.4823 13.6096C42.6896 13.3835 42.8439 13.114 42.9339 12.8208C43.024 12.5275 43.0475 12.2179 43.0028 11.9145C43.0442 11.6122 43.0183 11.3045 42.9269 11.0134C42.8355 10.7223 42.6808 10.4551 42.474 10.2308C42.2672 10.0065 42.0133 9.83071 41.7305 9.71607C41.4478 9.60143 41.1432 9.55074 40.8386 9.56765H39.6012V14.2747Z" fill="black"/>
<path d="M45.1918 12.725C45.1606 12.3995 45.1979 12.0711 45.3011 11.7609C45.4043 11.4507 45.5712 11.1654 45.7911 10.9235C46.011 10.6815 46.279 10.4882 46.578 10.3559C46.877 10.2237 47.2004 10.1553 47.5273 10.1553C47.8542 10.1553 48.1776 10.2237 48.4766 10.3559C48.7756 10.4882 49.0436 10.6815 49.2635 10.9235C49.4834 11.1654 49.6503 11.4507 49.7535 11.7609C49.8567 12.0711 49.894 12.3995 49.8628 12.725C49.8946 13.0508 49.8578 13.3796 49.7548 13.6903C49.6519 14.001 49.4851 14.2868 49.2651 14.5292C49.0452 14.7716 48.7769 14.9654 48.4776 15.0979C48.1784 15.2305 47.8546 15.299 47.5273 15.299C47.2 15.299 46.8763 15.2305 46.577 15.0979C46.2777 14.9654 46.0094 14.7716 45.7895 14.5292C45.5695 14.2868 45.4027 14.001 45.2998 13.6903C45.1968 13.3796 45.16 13.0508 45.1918 12.725V12.725ZM48.8575 12.725C48.8575 11.6514 48.3753 11.0237 47.5289 11.0237C46.6793 11.0237 46.2014 11.6514 46.2014 12.725C46.2014 13.8071 46.6794 14.43 47.5289 14.43C48.3753 14.43 48.8575 13.8028 48.8575 12.725H48.8575Z" fill="black"/>
<path d="M56.0719 15.2025H55.058L54.0344 11.555H53.9571L52.9378 15.2025H51.9335L50.5684 10.25H51.5598L52.4469 14.029H52.52L53.5382 10.25H54.4758L55.494 14.029H55.5714L56.4542 10.25H57.4316L56.0719 15.2025Z" fill="black"/>
<path d="M58.5798 10.2499H59.5206V11.0366H59.5937C59.7176 10.7541 59.9266 10.5172 60.1915 10.359C60.4564 10.2009 60.7641 10.1293 61.0716 10.1543C61.3126 10.1362 61.5545 10.1725 61.7795 10.2606C62.0046 10.3487 62.2069 10.4863 62.3715 10.6632C62.5361 10.8401 62.6589 11.0518 62.7306 11.2825C62.8023 11.5133 62.8211 11.7572 62.7858 11.9963V15.2023H61.8084V12.2417C61.8084 11.4459 61.4625 11.0501 60.7397 11.0501C60.5761 11.0424 60.4128 11.0703 60.2609 11.1317C60.1091 11.1931 59.9723 11.2866 59.86 11.4058C59.7477 11.525 59.6625 11.6671 59.6102 11.8223C59.5579 11.9775 59.5398 12.1422 59.5572 12.3051V15.2024H58.5798L58.5798 10.2499Z" fill="black"/>
<path d="M64.3431 8.31689H65.3205V15.2027H64.3431V8.31689Z" fill="black"/>
<path d="M66.6792 12.7236C66.6481 12.3981 66.6853 12.0697 66.7885 11.7595C66.8918 11.4492 67.0587 11.164 67.2786 10.922C67.4986 10.6801 67.7666 10.4868 68.0656 10.3545C68.3646 10.2222 68.688 10.1539 69.015 10.1539C69.3419 10.1539 69.6653 10.2222 69.9643 10.3545C70.2633 10.4868 70.5314 10.6801 70.7513 10.922C70.9712 11.164 71.1382 11.4492 71.2414 11.7595C71.3446 12.0697 71.3819 12.3981 71.3508 12.7236C71.3824 13.0494 71.3456 13.3782 71.2427 13.689C71.1397 13.9997 70.9729 14.2854 70.7529 14.5278C70.5329 14.7703 70.2646 14.964 69.9653 15.0965C69.666 15.2291 69.3423 15.2976 69.015 15.2976C68.6876 15.2976 68.3639 15.2291 68.0646 15.0965C67.7653 14.964 67.497 14.7703 67.2771 14.5278C67.0571 14.2854 66.8902 13.9997 66.7873 13.689C66.6843 13.3782 66.6475 13.0494 66.6792 12.7236V12.7236ZM70.3449 12.7236C70.3449 11.6501 69.8626 11.0223 69.0163 11.0223C68.1667 11.0223 67.6888 11.6501 67.6888 12.7236C67.6888 13.8057 68.1668 14.4287 69.0163 14.4287C69.8627 14.4286 70.3449 13.8014 70.3449 12.7236H70.3449Z" fill="black"/>
<path d="M72.3799 13.8028C72.3799 12.9113 73.0436 12.3974 74.2219 12.3244L75.5634 12.2471V11.8196C75.5634 11.2965 75.2175 11.0011 74.5495 11.0011C74.0039 11.0011 73.6258 11.2015 73.5173 11.5516H72.5711C72.671 10.701 73.4711 10.1553 74.5946 10.1553C75.8362 10.1553 76.5365 10.7734 76.5365 11.8196V15.2034H75.5956V14.5074H75.5183C75.3613 14.7571 75.1409 14.9606 74.8796 15.0972C74.6182 15.2338 74.3253 15.2986 74.0307 15.285C73.8228 15.3066 73.6127 15.2844 73.4139 15.2199C73.2151 15.1553 73.032 15.0498 72.8764 14.9102C72.7209 14.7705 72.5964 14.5998 72.5108 14.4091C72.4253 14.2184 72.3807 14.0118 72.3799 13.8028V13.8028ZM75.5634 13.3796V12.9656L74.354 13.0429C73.672 13.0886 73.3626 13.3206 73.3626 13.7572C73.3626 14.2029 73.7493 14.4623 74.281 14.4623C74.4368 14.478 74.5941 14.4623 74.7437 14.416C74.8933 14.3697 75.0321 14.2938 75.1517 14.1928C75.2713 14.0918 75.3694 13.9678 75.4402 13.8281C75.5109 13.6884 75.5528 13.5359 75.5634 13.3796V13.3796Z" fill="black"/>
<path d="M77.8211 12.7243C77.8211 11.1594 78.6256 10.168 79.8768 10.168C80.1864 10.1538 80.4935 10.2279 80.7625 10.3818C81.0314 10.5356 81.251 10.7629 81.3956 11.0369H81.4686V8.31689H82.446V15.2027H81.5094V14.4202H81.4321C81.2763 14.6924 81.0491 14.9168 80.775 15.0691C80.5008 15.2214 80.1902 15.2958 79.8769 15.2843C78.617 15.2843 77.8211 14.2929 77.8211 12.7243ZM78.8308 12.7243C78.8308 13.7747 79.3259 14.4068 80.154 14.4068C80.9778 14.4068 81.4869 13.7656 81.4869 12.7286C81.4869 11.6964 80.9724 11.0461 80.154 11.0461C79.3312 11.0461 78.8307 11.6825 78.8307 12.7243H78.8308Z" fill="black"/>
<path d="M86.4895 12.725C86.4584 12.3995 86.4956 12.0711 86.5988 11.7609C86.702 11.4507 86.8689 11.1654 87.0888 10.9235C87.3087 10.6815 87.5768 10.4882 87.8758 10.3559C88.1747 10.2237 88.4981 10.1553 88.825 10.1553C89.152 10.1553 89.4753 10.2237 89.7743 10.3559C90.0733 10.4882 90.3413 10.6815 90.5612 10.9235C90.7811 11.1654 90.948 11.4507 91.0513 11.7609C91.1545 12.0711 91.1917 12.3995 91.1606 12.725C91.1923 13.0508 91.1555 13.3796 91.0526 13.6903C90.9496 14.001 90.7828 14.2868 90.5629 14.5292C90.3429 14.7716 90.0747 14.9654 89.7754 15.0979C89.4761 15.2305 89.1524 15.299 88.825 15.299C88.4977 15.299 88.174 15.2305 87.8747 15.0979C87.5754 14.9654 87.3072 14.7716 87.0872 14.5292C86.8672 14.2868 86.7004 14.001 86.5975 13.6903C86.4946 13.3796 86.4578 13.0508 86.4895 12.725V12.725ZM90.1552 12.725C90.1552 11.6514 89.673 11.0237 88.8266 11.0237C87.9771 11.0237 87.4991 11.6514 87.4991 12.725C87.4991 13.8071 87.9771 14.43 88.8266 14.43C89.673 14.43 90.1552 13.8028 90.1552 12.725Z" fill="black"/>
<path d="M92.4721 10.2499H93.413V11.0366H93.486C93.6099 10.7541 93.8189 10.5172 94.0838 10.359C94.3487 10.2009 94.6564 10.1293 94.9639 10.1543C95.2049 10.1362 95.4469 10.1725 95.6719 10.2606C95.8969 10.3487 96.0992 10.4863 96.2639 10.6632C96.4285 10.8401 96.5512 11.0518 96.6229 11.2825C96.6946 11.5133 96.7135 11.7572 96.6781 11.9963V15.2023H95.7007V12.2417C95.7007 11.4459 95.3549 11.0501 94.632 11.0501C94.4684 11.0424 94.3051 11.0703 94.1533 11.1317C94.0014 11.1931 93.8647 11.2866 93.7523 11.4058C93.64 11.525 93.5548 11.6671 93.5025 11.8223C93.4503 11.9775 93.4322 12.1422 93.4495 12.3051V15.2024H92.4721V10.2499Z" fill="black"/>
<path d="M102.201 9.01709V10.2727H103.274V11.0959H102.201V13.6425C102.201 14.1613 102.415 14.3884 102.901 14.3884C103.026 14.388 103.15 14.3805 103.274 14.3659V15.18C103.098 15.2114 102.921 15.2281 102.742 15.2299C101.655 15.2299 101.222 14.8476 101.222 13.8928V11.0959H100.436V10.2726H101.222V9.01709H102.201Z" fill="black"/>
<path d="M104.609 8.31689H105.578V11.0461H105.655C105.785 10.7609 106 10.5226 106.27 10.3639C106.54 10.2051 106.853 10.1336 107.165 10.1589C107.405 10.1459 107.645 10.1859 107.867 10.2761C108.09 10.3663 108.289 10.5046 108.452 10.6809C108.615 10.8573 108.737 11.0674 108.81 11.2963C108.882 11.5252 108.903 11.7673 108.871 12.0052V15.2027H107.892V12.2463C107.892 11.4553 107.524 11.0546 106.833 11.0546C106.665 11.0409 106.497 11.064 106.338 11.1223C106.18 11.1807 106.037 11.2729 105.918 11.3925C105.799 11.512 105.708 11.6561 105.651 11.8147C105.594 11.9732 105.572 12.1423 105.587 12.3102V15.2026H104.609L104.609 8.31689Z" fill="black"/>
<path d="M114.57 13.8648C114.437 14.3174 114.149 14.709 113.757 14.9709C113.365 15.2328 112.893 15.3485 112.424 15.2976C112.098 15.3062 111.773 15.2437 111.474 15.1144C111.174 14.9852 110.906 14.7923 110.688 14.549C110.471 14.3058 110.308 14.0182 110.213 13.706C110.118 13.3938 110.091 13.0647 110.136 12.7414C110.093 12.417 110.119 12.0872 110.214 11.7741C110.31 11.461 110.471 11.172 110.687 10.9266C110.904 10.6813 111.171 10.4853 111.469 10.352C111.768 10.2187 112.092 10.1512 112.419 10.154C113.797 10.154 114.629 11.0954 114.629 12.6506V12.9916H111.132V13.0464C111.116 13.2281 111.139 13.4111 111.199 13.5835C111.258 13.7559 111.353 13.9139 111.477 14.0475C111.602 14.1811 111.752 14.2872 111.92 14.3592C112.087 14.4311 112.268 14.4672 112.451 14.4652C112.684 14.4932 112.921 14.4511 113.131 14.3442C113.341 14.2373 113.514 14.0704 113.629 13.8648L114.57 13.8648ZM111.132 12.2688H113.633C113.645 12.1025 113.623 11.9356 113.567 11.7786C113.511 11.6217 113.423 11.4782 113.308 11.3573C113.193 11.2365 113.054 11.141 112.9 11.0771C112.746 11.0131 112.581 10.982 112.414 10.9858C112.245 10.9837 112.077 11.0154 111.921 11.0792C111.764 11.1429 111.622 11.2373 111.502 11.3569C111.383 11.4764 111.288 11.6187 111.225 11.7753C111.161 11.932 111.129 12.0997 111.132 12.2688H111.132Z" fill="black"/>
</svg>
