<svg width="37" height="37" viewBox="0 0 37 37" fill="none" xmlns="http://www.w3.org/2000/svg">
<path fill-rule="evenodd" clip-rule="evenodd" d="M0 18.3333C0 8.20811 8.20811 0 18.3333 0C28.4586 0 36.6667 8.20811 36.6667 18.3333C36.6667 28.4586 28.4586 36.6667 18.3333 36.6667C8.20811 36.6667 0 28.4586 0 18.3333ZM18.3333 9.16667C23.375 9.16667 27.5 13.2917 27.5 18.3333C27.5 22.9167 24.1771 26.8125 19.5938 27.5V20.9688H21.7708L22.2292 18.3333H19.7083V16.6146C19.7083 15.9271 20.0521 15.2396 21.1979 15.2396H22.3438V12.9479C22.3438 12.9479 21.3125 12.7188 20.2813 12.7188C18.2188 12.7188 16.8438 13.9792 16.8438 16.2708V18.3333H14.5521V20.9688H16.8438V27.3854C12.4896 26.6979 9.16667 22.9167 9.16667 18.3333C9.16667 13.2917 13.2917 9.16667 18.3333 9.16667Z" fill="white"/>
</svg>
