<svg width="131" height="43" viewBox="0 0 131 43" fill="none" xmlns="http://www.w3.org/2000/svg">
<path d="M8.94367 42.07C8.60856 42.07 8.28155 42.0657 7.94907 42.0582C7.26031 42.0492 6.57316 41.9893 5.89326 41.8788C5.25928 41.7696 4.64513 41.5665 4.07106 41.2762C3.50226 40.9883 2.98346 40.6107 2.53455 40.1581C2.07914 39.7107 1.69999 39.1919 1.41212 38.6221C1.12108 38.0486 0.919668 37.4339 0.814892 36.7994C0.701742 36.1176 0.640523 35.4282 0.631764 34.7371C0.624791 34.5052 0.615662 33.7329 0.615662 33.7329V8.32528C0.615662 8.32528 0.625385 7.56482 0.631819 7.3414C0.640206 6.65143 0.701069 5.9631 0.81388 5.28237C0.91885 4.64612 1.12042 4.02964 1.41161 3.45428C1.69842 2.88489 2.07547 2.36566 2.52813 1.91672C2.98029 1.46351 3.50075 1.08403 4.07052 0.792136C4.64327 0.502743 5.25626 0.30107 5.88896 0.193874C6.57109 0.0823099 7.26063 0.0219931 7.95177 0.0134294L8.94421 0H121.976L122.98 0.0139684C123.665 0.0221065 124.348 0.0818852 125.024 0.192796C125.663 0.301336 126.283 0.504417 126.862 0.795359C128.004 1.38362 128.932 2.3143 129.518 3.45696C129.805 4.02835 130.003 4.6398 130.107 5.27056C130.221 5.95688 130.285 6.65062 130.298 7.34624C130.301 7.65772 130.301 7.9923 130.301 8.32528C130.31 8.73773 130.31 9.1303 130.31 9.5261V32.5449C130.31 32.9445 130.31 33.3344 130.301 33.7275C130.301 34.0851 130.301 34.4128 130.297 34.75C130.284 35.4332 130.221 36.1146 130.109 36.7886C130.006 37.4277 129.806 38.0472 129.515 38.6254C129.225 39.189 128.848 39.7033 128.398 40.1495C127.949 40.6046 127.429 40.9843 126.859 41.2741C126.281 41.5667 125.663 41.7705 125.024 41.8788C124.345 41.9898 123.657 42.0498 122.968 42.0582C122.646 42.0657 122.309 42.07 121.981 42.07L120.789 42.0722L8.94367 42.07Z" fill="white"/>
<path d="M45.5372 11.2144C45.5372 12.0304 45.296 12.6803 44.8129 13.165C44.2641 13.7414 43.549 14.0298 42.6698 14.0298C41.8278 14.0298 41.1119 13.7376 40.5232 13.1525C39.9335 12.5677 39.6392 11.8425 39.6392 10.9773C39.6392 10.1117 39.9335 9.38692 40.5232 8.80174C41.1119 8.21694 41.8278 7.92435 42.6698 7.92435C43.0875 7.92435 43.4875 8.00616 43.8673 8.16941C44.247 8.33304 44.5516 8.55025 44.7795 8.82229L44.2668 9.33627C43.8806 8.87401 43.3489 8.64307 42.6698 8.64307C42.0557 8.64307 41.5248 8.8592 41.0766 9.29176C40.6284 9.72481 40.4044 10.2863 40.4044 10.9773C40.4044 11.6683 40.6284 12.2298 41.0766 12.6628C41.5248 13.0954 42.0557 13.3115 42.6698 13.3115C43.3212 13.3115 43.8643 13.0942 44.299 12.659C44.5813 12.3755 44.7445 11.9814 44.7882 11.4753H42.6698V10.7733H45.4965C45.5239 10.926 45.5372 11.0725 45.5372 11.2144" fill="black"/>
<path d="M45.5374 11.2141H45.4402C45.4394 12.0115 45.2069 12.6309 44.7443 13.0959L44.7433 13.0966L44.7429 13.0974C44.2116 13.654 43.5287 13.931 42.67 13.9321C41.8505 13.931 41.1646 13.651 40.5918 13.0833C40.0203 12.5145 39.7377 11.8201 39.7366 10.977C39.7377 10.1335 40.0203 9.43952 40.5918 8.87108C41.1646 8.30304 41.8505 8.02262 42.67 8.02145C43.0752 8.02145 43.4611 8.10064 43.8291 8.25853C44.1975 8.41758 44.4885 8.62602 44.7053 8.88482L44.7797 8.82199L44.711 8.75313L44.1982 9.26751L44.267 9.33598L44.3418 9.27364C43.9377 8.78849 43.3704 8.54391 42.67 8.54537C42.0332 8.54459 41.4729 8.77251 41.0096 9.22153C40.5417 9.67201 40.3066 10.2651 40.3074 10.977C40.3066 11.6889 40.5417 12.282 41.0096 12.7325C41.4729 13.1815 42.0332 13.4094 42.67 13.4086C43.343 13.4098 43.9165 13.1811 44.368 12.7276C44.6696 12.4247 44.8405 12.0051 44.8853 11.4834L44.8944 11.3776H42.7672V10.8704H45.4968V10.773L45.401 10.7902C45.4276 10.9378 45.4402 11.0782 45.4402 11.2141H45.5374H45.6346C45.6346 11.066 45.6209 10.9139 45.5924 10.7556L45.578 10.6756H42.5727V11.475V11.5724H44.7884V11.475L44.6916 11.4666C44.6487 11.9568 44.4929 12.3258 44.2305 12.5899C43.8127 13.0068 43.3001 13.2126 42.67 13.2138C42.0787 13.213 41.577 13.0091 41.1444 12.5925C40.7161 12.1774 40.5029 11.6474 40.5019 10.977C40.5029 10.3066 40.7161 9.77662 41.1444 9.3615C41.577 8.94491 42.0787 8.74095 42.67 8.74018C43.3274 8.74173 43.8238 8.95933 44.1926 9.3988L44.2609 9.48023L44.8485 8.89086L44.9115 8.82774L44.8541 8.75956C44.6152 8.47427 44.297 8.24781 43.9058 8.0797C43.5139 7.9111 43.1003 7.82665 42.67 7.82665C41.8056 7.82587 41.0597 8.13025 40.4547 8.73258C39.8475 9.33374 39.5414 10.0894 39.5422 10.977C39.5414 11.8642 39.8475 12.6203 40.4551 13.2218C41.0597 13.8237 41.8056 14.1277 42.67 14.127C43.5701 14.1277 44.3168 13.8282 44.8834 13.232L44.8131 13.1647L44.8818 13.2336C45.3854 12.7294 45.6353 12.0484 45.6346 11.2141H45.5374Z" fill="black"/>
<path d="M50.0186 8.77334H47.362V10.6263H49.7577V11.3286H47.362V13.1815H50.0186V13.8995H46.6131V8.0554H50.0186V8.77334Z" fill="black"/>
<path d="M50.0185 8.77305V8.67565H47.2647V10.7234H49.6604V11.2306L47.2647 11.2309V13.2786H49.9213V13.8018H46.7103V8.15251H49.9213V8.77305H50.0185V8.67565V8.77305H50.1157V8.05511V7.9577H46.5158V13.9966H50.1157V13.1812V13.0838H47.4592V11.4257H49.8549V10.626V10.5286H47.4592V8.87045H50.1157V8.77305H50.0185" fill="black"/>
<path d="M53.1794 13.8995H52.4294V8.77334H50.8001V8.0554H54.8087V8.77334H53.1794V13.8995Z" fill="black"/>
<path d="M53.1797 13.8992V13.8018H52.5268V8.67565H50.8975V8.15251H54.7117V8.67565H53.0824V13.8992H53.1797V13.8018V13.8992H53.2769V8.87045H54.9062V8.05511V7.9577H50.7031V8.77305V8.87045H52.3323V13.9966H53.1797H53.2769V13.8992H53.1797" fill="black"/>
<path d="M57.7094 13.8995V8.0554H58.4587V13.8995H57.7094Z" fill="black"/>
<path d="M57.7092 13.8992H57.8064V8.15251H58.3613V13.8018H57.7092V13.8992H57.8064H57.7092V13.9966H58.4585H58.5557V7.9577H57.7092H57.612V13.9966H57.7092V13.8992Z" fill="black"/>
<path d="M61.7838 13.8995H61.0337V8.77334H59.4045V8.0554H63.4131V8.77334H61.7838V13.8995Z" fill="black"/>
<path d="M61.7837 13.8992V13.8018H61.1308V8.67565H59.5016V8.15251H63.3157V8.67565H61.6865V13.8992H61.7837V13.8018V13.8992H61.8809V8.87045H63.5102V8.05511V7.9577H59.3072V8.77305V8.87045H60.9364V13.9966H61.7837H61.8809V13.8992H61.7837" fill="black"/>
<path d="M67.2776 12.6548C67.7094 13.0927 68.2377 13.3115 68.8625 13.3115C69.4872 13.3115 70.0158 13.0927 70.4469 12.6548C70.8791 12.2169 71.0956 11.6572 71.0956 10.9773C71.0956 10.2974 70.8791 9.73766 70.4469 9.29975C70.0158 8.86183 69.4872 8.64307 68.8625 8.64307C68.2377 8.64307 67.7094 8.86183 67.2776 9.29975C66.8465 9.73766 66.6301 10.2974 66.6301 10.9773C66.6301 11.6572 66.8465 12.2169 67.2776 12.6548ZM71.0014 13.1441C70.4279 13.7349 69.7146 14.0298 68.8625 14.0298C68.0094 14.0298 67.2966 13.7349 66.7243 13.1441C66.1504 12.5539 65.8649 11.8315 65.8649 10.9773C65.8649 10.1231 66.1504 9.40056 66.7243 8.8105C67.2966 8.21957 68.0094 7.92435 68.8625 7.92435C69.7102 7.92435 70.4215 8.22113 70.9976 8.8143C71.573 9.40747 71.8609 10.1284 71.8609 10.9773C71.8609 11.8315 71.5737 12.5539 71.0014 13.1441Z" fill="black"/>
<path d="M67.2775 12.6545L67.2084 12.723C67.6562 13.1785 68.2148 13.4098 68.8624 13.4086C69.5095 13.4098 70.0689 13.1785 70.5159 12.723C70.9667 12.2672 71.1934 11.6774 71.1927 10.977C71.1934 10.2766 70.9667 9.68682 70.5159 9.23098C70.0689 8.77553 69.5095 8.5442 68.8624 8.54537C68.2148 8.5442 67.6562 8.77553 67.2084 9.23098C66.7587 9.68682 66.5316 10.2766 66.5328 10.977C66.5316 11.6774 66.7587 12.2672 67.2084 12.723L67.2775 12.6545L67.3466 12.5861C66.9342 12.1656 66.728 11.6367 66.7272 10.977C66.728 10.3173 66.9342 9.78841 67.3466 9.36793C67.7629 8.94754 68.26 8.74134 68.8624 8.74018C69.4643 8.74134 69.9625 8.94754 70.3777 9.36793C70.7909 9.78841 70.9971 10.3173 70.9979 10.977C70.9971 11.6367 70.7909 12.1656 70.3777 12.5861C69.9625 13.0064 69.4643 13.2126 68.8624 13.2138C68.26 13.2126 67.7629 13.0064 67.3466 12.5861L67.2775 12.6545ZM71.0013 13.1438L70.9318 13.0761C70.3743 13.6483 69.6926 13.931 68.8624 13.9321C68.0318 13.931 67.35 13.6483 66.7936 13.0761L66.791 13.0731L66.7936 13.0761C66.2373 12.5019 65.9627 11.8095 65.962 10.977C65.9627 10.1445 66.2373 9.45208 66.7936 8.8779C67.35 8.30567 68.0318 8.02262 68.8624 8.02145C69.6872 8.02262 70.3674 8.30684 70.928 8.88209C71.4862 9.4589 71.7624 10.1503 71.7635 10.977C71.7624 11.8095 71.487 12.5019 70.9318 13.0761L71.0013 13.1438L71.0712 13.2115C71.6606 12.6051 71.9587 11.8528 71.958 10.977C71.9587 10.1061 71.6594 9.35546 71.0673 8.74631C70.4749 8.13483 69.7328 7.82558 68.8624 7.82665C67.9873 7.82558 67.243 8.13336 66.6543 8.74251V8.74212C66.0638 9.34893 65.7667 10.1012 65.7675 10.977C65.7667 11.8528 66.0638 12.6051 66.6543 13.2119L66.6569 13.2146L66.6543 13.2115C67.243 13.8206 67.9873 14.1277 68.8624 14.127C69.737 14.1277 70.4813 13.8206 71.0712 13.2115L71.0013 13.1438" fill="black"/>
<path d="M72.9128 13.8995V8.0554H73.825L76.6601 12.6017H76.6924L76.6601 11.4754V8.0554H77.4102V13.8995H76.6278L73.6617 9.13285H73.6294L73.6617 10.2595V13.8995H72.9128Z" fill="black"/>
<path d="M72.9127 13.8992H73.0099V8.15251H73.771L76.6061 12.6988H76.6923H76.7921L76.7572 11.4737V8.15251H77.3129V13.8018H76.6817L73.7156 9.03516H73.6293H73.5295L73.5644 10.2608V13.8018H72.9127V13.8992H73.0099H72.9127V13.9966H73.6616H73.7588V10.2576L73.7266 9.12993L73.6293 9.13256V9.22996H73.6616V9.13256L73.5792 9.18438L76.5738 13.9966H77.4101H77.5073V7.9577H76.66H76.5628V11.4763L76.5951 12.604L76.6923 12.6014V12.504H76.66V12.6014L76.7425 12.5497L73.8788 7.9577H72.9127H72.8155V13.9966H72.9127V13.8992Z" fill="black"/>
<path d="M103.403 30.458H105.217V18.2816H103.403V30.458ZM119.743 22.6678L117.663 27.9468H117.601L115.443 22.6678H113.489L116.725 30.0462L114.88 34.1504H116.773L121.76 22.6678H119.743ZM109.455 29.075C108.86 29.075 108.031 28.7774 108.031 28.0408C108.031 27.101 109.064 26.7407 109.954 26.7407C110.753 26.7407 111.127 26.913 111.612 27.1483C111.471 28.276 110.502 29.075 109.455 29.075V29.075ZM109.673 22.4014C108.36 22.4014 107 22.9812 106.437 24.2658L108.047 24.9392C108.391 24.2658 109.032 24.0462 109.705 24.0462C110.643 24.0462 111.597 24.6105 111.612 25.613V25.7382C111.284 25.5502 110.581 25.2683 109.72 25.2683C107.985 25.2683 106.217 26.2236 106.217 28.0096C106.217 29.6388 107.641 30.6885 109.235 30.6885C110.455 30.6885 111.127 30.1402 111.55 29.4981H111.612V30.4378H113.363V25.7693C113.363 23.6079 111.753 22.4014 109.673 22.4014V22.4014ZM98.4616 24.1501H95.8813V19.9763H98.4616C99.8179 19.9763 100.588 21.1013 100.588 22.0631C100.588 23.0068 99.8179 24.1501 98.4616 24.1501ZM98.4149 18.2816H94.068V30.458H95.8813V25.8447H98.4149C100.426 25.8447 102.402 24.3863 102.402 22.0631C102.402 19.74 100.426 18.2816 98.4149 18.2816ZM74.7107 29.0772C73.4574 29.0772 72.4081 28.0259 72.4081 26.5821C72.4081 25.123 73.4574 24.0558 74.7107 24.0558C75.9481 24.0558 76.9192 25.123 76.9192 26.5821C76.9192 28.0259 75.9481 29.0772 74.7107 29.0772V29.0772ZM76.7938 23.3496H76.7311C76.324 22.8633 75.5405 22.4239 74.5539 22.4239C72.4863 22.4239 70.5912 24.244 70.5912 26.5821C70.5912 28.9045 72.4863 30.7091 74.5539 30.7091C75.5405 30.7091 76.324 30.2696 76.7311 29.7678H76.7938V30.364C76.7938 31.9491 75.9481 32.7964 74.5854 32.7964C73.4733 32.7964 72.7841 31.9958 72.5019 31.3212L70.9201 31.9802C71.3744 33.0786 72.5805 34.4282 74.5854 34.4282C76.7156 34.4282 78.5168 33.1726 78.5168 30.1129V22.675H76.7938V23.3496ZM79.7698 30.458H81.5867V18.2812H79.7698V30.458ZM84.2652 26.4409C84.2182 24.8402 85.5026 24.0245 86.4266 24.0245C87.1476 24.0245 87.7582 24.3852 87.9614 24.9034L84.2652 26.4409ZM89.9039 25.0602C89.5598 24.1341 88.5097 22.4239 86.3639 22.4239C84.2337 22.4239 82.4639 24.1029 82.4639 26.5665C82.4639 28.8889 84.2182 30.7091 86.5675 30.7091C88.4631 30.7091 89.5598 29.5478 90.0138 28.8732L88.604 27.9316C88.1344 28.6221 87.4918 29.0772 86.5675 29.0772C85.6435 29.0772 84.9857 28.6534 84.5626 27.822L90.0916 25.5308L89.9039 25.0602ZM45.8534 23.695V25.4524H50.0511C49.9258 26.4409 49.5968 27.1627 49.0956 27.6649C48.4849 28.277 47.5294 28.9516 45.8534 28.9516C43.2689 28.9516 41.2485 26.8647 41.2485 24.2756C41.2485 21.6865 43.2689 19.5993 45.8534 19.5993C47.2475 19.5993 48.2654 20.1486 49.0173 20.8548L50.2547 19.6152C49.2053 18.6107 47.8111 17.8419 45.8534 17.8419C42.3134 17.8419 39.3375 20.7292 39.3375 24.2756C39.3375 27.822 42.3134 30.7091 45.8534 30.7091C47.7645 30.7091 49.2053 30.0817 50.3329 28.9045C51.492 27.7433 51.8524 26.1114 51.8524 24.7935C51.8524 24.3852 51.8212 24.0089 51.7582 23.695H45.8534ZM56.6248 29.0772C55.3715 29.0772 54.2906 28.0415 54.2906 26.5665C54.2906 25.0758 55.3715 24.0558 56.6248 24.0558C57.8776 24.0558 58.9585 25.0758 58.9585 26.5665C58.9585 28.0415 57.8776 29.0772 56.6248 29.0772V29.0772ZM56.6248 22.4239C54.3377 22.4239 52.4737 24.1656 52.4737 26.5665C52.4737 28.9516 54.3377 30.7091 56.6248 30.7091C58.9114 30.7091 60.7754 28.9516 60.7754 26.5665C60.7754 24.1656 58.9114 22.4239 56.6248 22.4239ZM65.6795 29.0772C64.4266 29.0772 63.3457 28.0415 63.3457 26.5665C63.3457 25.0758 64.4266 24.0558 65.6795 24.0558C66.9324 24.0558 68.0132 25.0758 68.0132 26.5665C68.0132 28.0415 66.9324 29.0772 65.6795 29.0772ZM65.6795 22.4239C63.3925 22.4239 61.5289 24.1656 61.5289 26.5665C61.5289 28.9516 63.3925 30.7091 65.6795 30.7091C67.9662 30.7091 69.8302 28.9516 69.8302 26.5665C69.8302 24.1656 67.9662 22.4239 65.6795 22.4239Z" fill="black"/>
<path d="M9.65323 32.7847L9.58099 32.7154C9.29807 32.4155 9.13104 31.9498 9.13104 31.3468V31.4887V9.94748C9.13104 9.94553 9.13104 9.94407 9.13104 9.94251C9.13104 9.94437 9.13104 9.94592 9.13104 9.94787V10.0902C9.13104 9.4372 9.32578 8.94532 9.65207 8.65039L21.6979 20.7179L9.65323 32.7847ZM9.13104 9.94135C9.13104 9.88768 9.1325 9.83557 9.13522 9.78424C9.1325 9.83518 9.13104 9.88768 9.13104 9.94135ZM9.13522 9.7819C9.13522 9.78122 9.13522 9.78044 9.13551 9.77966C9.13522 9.78044 9.13522 9.78122 9.13522 9.7819ZM9.13551 9.77508C9.13551 9.77469 9.13551 9.7743 9.13551 9.77391C9.13551 9.7743 9.13551 9.77469 9.13551 9.77508Z" fill="url(#paint0_linear_1_1288)"/>
<path d="M25.7127 24.8847L25.8043 24.8326L30.5613 22.1247C31.0149 21.8664 31.3172 21.5533 31.468 21.2219C31.3175 21.5533 31.0152 21.8668 30.5613 22.1251L25.8043 24.833L25.7127 24.8847V24.8847ZM25.7138 24.742L21.698 20.7182L25.7135 16.695L30.5613 19.4542C31.177 19.8046 31.5226 20.2563 31.5803 20.7178C31.5803 20.7182 31.5803 20.719 31.5803 20.7196C31.5226 21.18 31.177 21.6321 30.5613 21.9824L25.7138 24.742" fill="url(#paint1_linear_1_1288)"/>
<path d="M10.512 33.2446C10.1755 33.2446 9.88184 33.1351 9.65288 32.9281L9.65327 32.9277C9.88223 33.1347 10.1762 33.2446 10.5127 33.2446C10.5419 33.2446 10.5716 33.2438 10.6016 33.2424C10.5712 33.2438 10.5411 33.2446 10.512 33.2446V33.2446ZM10.5123 33.1019C10.1759 33.1023 9.88223 32.9924 9.65327 32.7854V32.7851L21.698 20.7183L25.7138 24.7422L11.6015 32.7752C11.2111 32.9969 10.8412 33.1019 10.5123 33.1019V33.1019ZM9.64987 32.9254C9.62858 32.9061 9.60767 32.8855 9.58716 32.8642L9.64987 32.9254Z" fill="url(#paint2_linear_1_1288)"/>
<path d="M21.698 20.7183L9.65216 8.65073C9.88112 8.44415 10.1744 8.33457 10.5105 8.33457C10.8401 8.33457 11.2104 8.43996 11.6016 8.66213L25.7135 16.6951L21.698 20.7183V20.7183ZM25.8043 16.6042L11.6016 8.51992C11.2104 8.29765 10.8401 8.19227 10.5105 8.19227C10.5089 8.19227 10.5078 8.19227 10.5063 8.19227C10.5082 8.19227 10.5097 8.19227 10.512 8.19227C10.8409 8.19227 11.2108 8.29726 11.6016 8.51953L25.8043 16.6042V16.6042Z" fill="url(#paint3_linear_1_1288)"/>
<path d="M10.6016 33.2421C10.9073 33.2245 11.2457 33.1191 11.6016 32.9171L25.7127 24.8846L11.6016 32.9171C11.246 33.1195 10.9073 33.2245 10.6016 33.2421V33.2421ZM9.6529 32.9278L9.64989 32.9251C9.65096 32.9259 9.65213 32.927 9.6529 32.9278ZM9.58718 32.8639L9.58105 32.8578V32.8574C9.58339 32.8597 9.58524 32.8619 9.58718 32.8639Z" fill="white"/>
<path d="M25.7125 24.8847L25.8046 24.8323L25.7125 24.8847Z" fill="url(#paint4_linear_1_1288)"/>
<path d="M10.5128 33.2446C10.1763 33.2446 9.88226 33.1347 9.65329 32.9277L9.6529 32.9281C9.65213 32.9273 9.65096 32.9262 9.64989 32.9254L9.58718 32.8642C9.58524 32.8622 9.58339 32.86 9.58105 32.8578L9.65329 32.7854C9.88226 32.9924 10.1759 33.1023 10.5124 33.1019C10.8412 33.1019 11.2111 32.9969 11.6016 32.7752L25.7138 24.7422L25.8043 24.8328L25.7127 24.8849L11.6016 32.9175C11.2457 33.1195 10.9073 33.2249 10.6016 33.2424C10.5716 33.2438 10.5419 33.2446 10.5128 33.2446" fill="url(#paint5_linear_1_1288)"/>
<path d="M9.58099 32.8584C9.29807 32.5585 9.13104 32.0928 9.13104 31.4898V31.4894C9.13104 32.0928 9.29807 32.5581 9.58099 32.858V32.8584" fill="white"/>
<path d="M9.581 32.8574C9.29807 32.5575 9.13104 32.0922 9.13104 31.4888V31.3469C9.13104 31.9499 9.29807 32.4156 9.581 32.7155L9.65323 32.7848L9.581 32.8574" fill="url(#paint6_linear_1_1288)"/>
<path d="M9.58105 32.8574L9.65372 32.7843V32.7846L9.58105 32.8574" fill="url(#paint7_linear_1_1288)"/>
<path d="M31.4679 21.2222C31.5426 21.0578 31.5803 20.8889 31.5803 20.7199C31.5803 20.7196 31.5803 20.7192 31.5803 20.7192C31.5803 20.8885 31.5426 21.0574 31.4679 21.2222Z" fill="white"/>
<path d="M25.804 24.8325L25.7136 24.7419L30.5611 21.9824C31.1767 21.632 31.5223 21.18 31.5801 20.7196C31.5801 20.8885 31.5424 21.0574 31.4677 21.2219C31.3169 21.5532 31.0146 21.8664 30.5611 22.1247L25.804 24.8325Z" fill="url(#paint8_linear_1_1288)"/>
<path d="M31.5802 20.7183V20.7179C31.5799 20.2084 31.24 19.699 30.5612 19.3124L25.8042 16.6045H25.8038L25.8042 16.6042L30.5612 19.312C31.2407 19.6986 31.581 20.2088 31.5802 20.7183Z" fill="#404040"/>
<path d="M31.5801 20.7178C31.5223 20.2563 31.1767 19.8046 30.5611 19.4542L25.7132 16.695L25.8036 16.6044H25.804L30.5611 19.3123C31.2398 19.6989 31.5797 20.2083 31.5801 20.7178Z" fill="url(#paint9_linear_1_1288)"/>
<path d="M9.13104 9.94287C9.13104 9.94248 9.13104 9.94209 9.13104 9.9417C9.13104 9.94209 9.13104 9.94248 9.13104 9.94287ZM9.13522 9.78459C9.13522 9.78381 9.13522 9.78304 9.13522 9.78226C9.13522 9.78304 9.13522 9.78381 9.13522 9.78459ZM9.13551 9.78002C9.13551 9.77846 9.13551 9.777 9.13551 9.77544C9.13551 9.777 9.13551 9.77846 9.13551 9.78002ZM9.13551 9.77427C9.19181 8.77367 9.7349 8.19569 10.5032 8.19228C10.1701 8.19423 9.87996 8.3038 9.65284 8.50883V8.50844L9.65012 8.51117C9.6262 8.53279 9.60345 8.55568 9.58099 8.57925C9.32578 8.84974 9.16478 9.25493 9.13551 9.77427Z" fill="#404040"/>
<path d="M9.13104 10.0903V9.94803C9.13104 9.94608 9.13104 9.94452 9.13104 9.94267C9.13104 9.94228 9.13104 9.94189 9.13104 9.9415C9.13104 9.88784 9.1325 9.83534 9.13522 9.7844C9.13522 9.78362 9.13522 9.78284 9.13522 9.78206C9.13522 9.78138 9.13522 9.7806 9.13551 9.77982C9.13551 9.77826 9.13551 9.7768 9.13551 9.77524C9.13551 9.77485 9.13551 9.77446 9.13551 9.77407C9.16478 9.25473 9.32578 8.84954 9.581 8.57905L9.65207 8.65055C9.32578 8.94548 9.13104 9.43735 9.13104 10.0903V10.0903ZM9.65012 8.51097L9.65284 8.50824C9.65207 8.50941 9.6509 8.51019 9.65012 8.51097Z" fill="url(#paint10_linear_1_1288)"/>
<path d="M25.7135 16.6953L11.6016 8.66234C11.2104 8.44017 10.8402 8.33478 10.5105 8.33478C10.1744 8.33478 9.88115 8.44436 9.65219 8.65094L9.58112 8.57945C9.60357 8.55588 9.62632 8.53299 9.65024 8.51137C9.65102 8.51059 9.65219 8.50981 9.65296 8.50903C9.88008 8.304 10.1702 8.19442 10.5033 8.19248C10.5041 8.19248 10.5051 8.19248 10.5063 8.19248C10.5079 8.19248 10.5089 8.19248 10.5105 8.19248C10.8402 8.19248 11.2104 8.29786 11.6016 8.52013L25.8043 16.6044L25.8039 16.6047L25.7135 16.6953Z" fill="url(#paint11_linear_1_1288)"/>
<defs>
<linearGradient id="paint0_linear_1_1288" x1="20.6298" y1="9.72025" x2="4.2835" y2="26.0369" gradientUnits="userSpaceOnUse">
<stop stop-color="#00A0FF"/>
<stop offset="0.00657445" stop-color="#00A1FF"/>
<stop offset="0.2601" stop-color="#00BEFF"/>
<stop offset="0.5122" stop-color="#00D2FF"/>
<stop offset="0.7604" stop-color="#00DFFF"/>
<stop offset="1" stop-color="#00E3FF"/>
</linearGradient>
<linearGradient id="paint1_linear_1_1288" x1="32.3304" y1="20.7188" x2="8.8051" y2="20.7188" gradientUnits="userSpaceOnUse">
<stop stop-color="#FFE000"/>
<stop offset="0.4087" stop-color="#FFBD00"/>
<stop offset="0.7754" stop-color="#FFA500"/>
<stop offset="1" stop-color="#FF9C00"/>
</linearGradient>
<linearGradient id="paint2_linear_1_1288" x1="23.573" y1="22.954" x2="1.4062" y2="45.0805" gradientUnits="userSpaceOnUse">
<stop stop-color="#FF3A44"/>
<stop offset="1" stop-color="#C31162"/>
</linearGradient>
<linearGradient id="paint3_linear_1_1288" x1="6.53" y1="1.40885" x2="16.4284" y2="11.2892" gradientUnits="userSpaceOnUse">
<stop stop-color="#32A071"/>
<stop offset="0.0685" stop-color="#2DA771"/>
<stop offset="0.4762" stop-color="#15CF74"/>
<stop offset="0.8009" stop-color="#06E775"/>
<stop offset="1" stop-color="#00F076"/>
</linearGradient>
<linearGradient id="paint4_linear_1_1288" x1="32.3693" y1="20.6943" x2="8.70528" y2="20.6943" gradientUnits="userSpaceOnUse">
<stop stop-color="#CCB300"/>
<stop offset="0.4087" stop-color="#CC9700"/>
<stop offset="0.7754" stop-color="#CC8400"/>
<stop offset="1" stop-color="#CC7D00"/>
</linearGradient>
<linearGradient id="paint5_linear_1_1288" x1="23.5731" y1="22.954" x2="1.40622" y2="45.0805" gradientUnits="userSpaceOnUse">
<stop stop-color="#CC2E36"/>
<stop offset="1" stop-color="#9C0E4E"/>
</linearGradient>
<linearGradient id="paint6_linear_1_1288" x1="20.6299" y1="9.72033" x2="4.28351" y2="26.037" gradientUnits="userSpaceOnUse">
<stop stop-color="#008DE0"/>
<stop offset="0.00657445" stop-color="#008DE0"/>
<stop offset="0.2601" stop-color="#00A7E0"/>
<stop offset="0.5122" stop-color="#00B8E0"/>
<stop offset="0.7604" stop-color="#00C4E0"/>
<stop offset="1" stop-color="#00C7E0"/>
</linearGradient>
<linearGradient id="paint7_linear_1_1288" x1="23.6565" y1="22.8952" x2="1.3588" y2="45.1536" gradientUnits="userSpaceOnUse">
<stop stop-color="#E0333C"/>
<stop offset="1" stop-color="#AB0F56"/>
</linearGradient>
<linearGradient id="paint8_linear_1_1288" x1="32.3301" y1="20.7187" x2="8.80483" y2="20.7187" gradientUnits="userSpaceOnUse">
<stop stop-color="#E0C500"/>
<stop offset="0.4087" stop-color="#E0A600"/>
<stop offset="0.7754" stop-color="#E09100"/>
<stop offset="1" stop-color="#E08900"/>
</linearGradient>
<linearGradient id="paint9_linear_1_1288" x1="32.3302" y1="20.7187" x2="8.80486" y2="20.7187" gradientUnits="userSpaceOnUse">
<stop stop-color="#FFE840"/>
<stop offset="0.4087" stop-color="#FFCE40"/>
<stop offset="0.7754" stop-color="#FFBC40"/>
<stop offset="1" stop-color="#FFB540"/>
</linearGradient>
<linearGradient id="paint10_linear_1_1288" x1="20.6298" y1="9.7204" x2="4.28348" y2="26.037" gradientUnits="userSpaceOnUse">
<stop stop-color="#40B8FF"/>
<stop offset="0.00657445" stop-color="#40B9FF"/>
<stop offset="0.2601" stop-color="#40CEFF"/>
<stop offset="0.5122" stop-color="#40DDFF"/>
<stop offset="0.7604" stop-color="#40E7FF"/>
<stop offset="1" stop-color="#40EAFF"/>
</linearGradient>
<linearGradient id="paint11_linear_1_1288" x1="6.53003" y1="1.40906" x2="16.4284" y2="11.2894" gradientUnits="userSpaceOnUse">
<stop stop-color="#65B895"/>
<stop offset="0.0685" stop-color="#62BD95"/>
<stop offset="0.4762" stop-color="#50DB97"/>
<stop offset="0.8009" stop-color="#44ED98"/>
<stop offset="1" stop-color="#40F498"/>
</linearGradient>
</defs>
</svg>
