<svg width="37" height="37" viewBox="0 0 37 37" fill="none" xmlns="http://www.w3.org/2000/svg">
<path d="M18.6666 21.5417C16.9479 21.5417 15.4583 20.1667 15.4583 18.3333C15.4583 16.6146 16.8333 15.125 18.6666 15.125C20.3854 15.125 21.8749 16.5 21.8749 18.3333C21.8749 20.0521 20.3854 21.5417 18.6666 21.5417Z" fill="white"/>
<path fill-rule="evenodd" clip-rule="evenodd" d="M22.5625 10.5417H14.7708C13.8541 10.6562 13.3958 10.7708 13.052 10.8854C12.5937 11 12.25 11.2292 11.9062 11.5729C11.6342 11.8449 11.5057 12.1169 11.3503 12.4457C11.3094 12.5323 11.2665 12.6232 11.2187 12.7187C11.201 12.7719 11.1805 12.8278 11.1586 12.8878C11.0387 13.2153 10.8749 13.6626 10.8749 14.4375V22.2292C10.9895 23.1458 11.1041 23.6042 11.2187 23.9479C11.3333 24.4062 11.5624 24.75 11.9062 25.0937C12.1782 25.3658 12.4502 25.4943 12.779 25.6496C12.8657 25.6906 12.9564 25.7334 13.052 25.7812C13.1052 25.799 13.1611 25.8194 13.2211 25.8414C13.5486 25.9612 13.9959 26.125 14.7708 26.125H22.5625C23.4791 26.0104 23.9375 25.8958 24.2812 25.7812C24.7395 25.6667 25.0833 25.4375 25.427 25.0937C25.699 24.8217 25.8276 24.5497 25.9829 24.221C26.0239 24.1343 26.0667 24.0436 26.1145 23.9479C26.1323 23.8947 26.1527 23.8388 26.1747 23.7789C26.2945 23.4514 26.4583 23.004 26.4583 22.2292V14.4375C26.3437 13.5208 26.2291 13.0625 26.1145 12.7187C26 12.2604 25.7708 11.9167 25.427 11.5729C25.155 11.3009 24.883 11.1724 24.5542 11.0171C24.4677 10.9761 24.3767 10.9332 24.2812 10.8854C24.228 10.8677 24.1721 10.8472 24.1122 10.8253C23.7847 10.7054 23.3373 10.5417 22.5625 10.5417ZM18.6666 13.4062C15.9166 13.4062 13.7395 15.5833 13.7395 18.3333C13.7395 21.0833 15.9166 23.2604 18.6666 23.2604C21.4166 23.2604 23.5937 21.0833 23.5937 18.3333C23.5937 15.5833 21.4166 13.4062 18.6666 13.4062ZM24.8541 13.2917C24.8541 13.9245 24.3411 14.4375 23.7083 14.4375C23.0755 14.4375 22.5625 13.9245 22.5625 13.2917C22.5625 12.6588 23.0755 12.1458 23.7083 12.1458C24.3411 12.1458 24.8541 12.6588 24.8541 13.2917Z" fill="white"/>
<path fill-rule="evenodd" clip-rule="evenodd" d="M0.333282 18.3333C0.333282 8.20811 8.5414 0 18.6666 0C28.7918 0 37 8.20811 37 18.3333C37 28.4586 28.7918 36.6667 18.6666 36.6667C8.5414 36.6667 0.333282 28.4586 0.333282 18.3333ZM14.7708 8.82291H22.5625C23.5937 8.9375 24.2812 9.05208 24.8541 9.28125C25.5416 9.625 26 9.85416 26.5729 10.4271C27.1458 11 27.4895 11.5729 27.7187 12.1458C27.9479 12.7187 28.177 13.4062 28.177 14.4375V22.2292C28.0624 23.2604 27.9479 23.9479 27.7187 24.5208C27.375 25.2083 27.1458 25.6667 26.5729 26.2396C26 26.8125 25.427 27.1562 24.8541 27.3854C24.2812 27.6146 23.5937 27.8437 22.5625 27.8437H14.7708C13.7395 27.7292 13.052 27.6146 12.4791 27.3854C11.7916 27.0417 11.3333 26.8125 10.7604 26.2396C10.1874 25.6667 9.8437 25.0937 9.61453 24.5208C9.38537 23.9479 9.1562 23.2604 9.1562 22.2292V14.4375C9.27078 13.4062 9.38537 12.7187 9.61453 12.1458C9.95828 11.4583 10.1874 11 10.7604 10.4271C11.3333 9.85416 11.9062 9.51041 12.4791 9.28125C13.052 9.05208 13.7395 8.82291 14.7708 8.82291Z" fill="white"/>
</svg>
