<svg width="147" height="48" viewBox="0 0 147 48" fill="none" xmlns="http://www.w3.org/2000/svg">
<path d="M22.8027 31.1275C23.1545 31.5086 23.3704 32.017 23.3732 32.5765V32.5765V37.2189C23.3737 38.2248 24.1785 39.0456 25.1843 39.0662H28.088C30.9686 39.0829 33.3174 36.7612 33.334 33.8806V33.8775V20.711C33.315 19.5832 32.78 18.5263 31.8822 17.8433L21.9515 9.91549C20.207 8.53655 17.7436 8.53655 15.9991 9.91549L6.11065 17.8509C5.20774 18.5323 4.6716 19.5935 4.65872 20.7245V33.8759C4.67288 36.7565 7.01949 39.0803 9.90014 39.0662H12.8086C13.8379 39.0711 14.6765 38.2408 14.6815 37.2114M14.7056 37.2113V32.5765C14.7084 32.0189 14.9231 31.5115 15.2732 31.1307" stroke="white" stroke-width="2.52632" stroke-linecap="round" stroke-linejoin="round"/>
<line x1="14.509" y1="21.9599" x2="23.4015" y2="21.9599" stroke="white" stroke-width="2.52632" stroke-linecap="round"/>
<path d="M69.4646 32.8619C70.0776 32.8619 70.5846 33.0623 70.9854 33.4632C71.4098 33.8404 71.622 34.3356 71.622 34.9486C71.622 35.5381 71.4098 36.0333 70.9854 36.4341C70.5846 36.8114 70.0776 37 69.4646 37H57.9698C57.3568 37 56.838 36.7996 56.4136 36.3987C56.0128 35.9743 55.8124 35.4556 55.8124 34.8425V14.3996C55.8124 13.7865 56.0246 13.2796 56.449 12.8787C56.8734 12.4543 57.4157 12.2421 58.0759 12.2421C58.6418 12.2421 59.137 12.4543 59.5614 12.8787C60.0094 13.2796 60.2334 13.7865 60.2334 14.3996V33.4632L59.4553 32.8619H69.4646ZM79.3155 34.8425C79.3155 35.4556 79.1151 35.9743 78.7142 36.3987C78.3134 36.7996 77.8065 37 77.1934 37C76.5803 37 76.0734 36.7996 75.6726 36.3987C75.2717 35.9743 75.0713 35.4556 75.0713 34.8425V20.2354C75.0713 19.6223 75.2717 19.1154 75.6726 18.7145C76.0734 18.2901 76.5803 18.0779 77.1934 18.0779C77.8065 18.0779 78.3134 18.2901 78.7142 18.7145C79.1151 19.1154 79.3155 19.6223 79.3155 20.2354V34.8425ZM77.158 15.7789C76.3563 15.7789 75.7905 15.6493 75.4603 15.3899C75.1302 15.1305 74.9652 14.6707 74.9652 14.0105V13.3385C74.9652 12.6547 75.142 12.1949 75.4957 11.9592C75.873 11.6998 76.4389 11.5701 77.1934 11.5701C78.0187 11.5701 78.5963 11.6998 78.9265 11.9592C79.2566 12.2185 79.4216 12.6783 79.4216 13.3385V14.0105C79.4216 14.6943 79.2448 15.1659 78.8911 15.4253C78.5374 15.6611 77.9597 15.7789 77.158 15.7789ZM84.5263 18.0779C84.9743 18.0779 85.3869 18.1958 85.7642 18.4316C86.1414 18.6438 86.4244 18.9739 86.613 19.4219L91.8122 31.3057L91.0341 31.6594L96.3393 19.4573C96.7402 18.5141 97.365 18.0661 98.2138 18.1133C98.8033 18.1133 99.2749 18.3019 99.6286 18.6792C100.006 19.0328 100.194 19.4808 100.194 20.0232C100.194 20.1882 100.159 20.3651 100.088 20.5537C100.041 20.7423 99.9823 20.9192 99.9115 21.0842L93.2976 35.656C92.9204 36.5048 92.3191 36.9528 91.4938 37C91.0458 37.0707 90.6096 36.9882 90.1852 36.7524C89.7844 36.5166 89.4778 36.1512 89.2656 35.656L82.6871 21.0842C82.64 20.9663 82.581 20.8131 82.5103 20.6244C82.4631 20.4358 82.4395 20.2118 82.4395 19.9524C82.4395 19.528 82.6282 19.1154 83.0054 18.7145C83.3827 18.2901 83.8896 18.0779 84.5263 18.0779ZM108.312 34.8425C108.312 35.4556 108.088 35.9743 107.64 36.3987C107.192 36.7996 106.674 37 106.084 37C105.424 37 104.893 36.7996 104.493 36.3987C104.092 35.9743 103.891 35.4556 103.891 34.8425V14.3996C103.891 13.7865 104.104 13.2796 104.528 12.8787C104.952 12.4543 105.495 12.2421 106.155 12.2421C106.721 12.2421 107.216 12.4543 107.64 12.8787C108.088 13.2796 108.312 13.7865 108.312 14.3996V34.8425ZM128.769 10.8274C129.382 10.8274 129.889 11.0278 130.29 11.4286C130.691 11.8295 130.891 12.3482 130.891 12.9848V34.8425C130.891 35.4556 130.691 35.9743 130.29 36.3987C129.889 36.7996 129.382 37 128.769 37C128.156 37 127.649 36.7996 127.248 36.3987C126.847 35.9743 126.647 35.4556 126.647 34.8425V33.1095L127.425 33.4278C127.425 33.7343 127.26 34.1116 126.93 34.5596C126.6 34.984 126.152 35.4084 125.586 35.8328C125.02 36.2573 124.348 36.6227 123.57 36.9293C122.815 37.2122 121.99 37.3537 121.094 37.3537C119.467 37.3537 117.994 36.9411 116.673 36.1158C115.353 35.2669 114.303 34.1116 113.525 32.6497C112.771 31.1642 112.394 29.4665 112.394 27.5566C112.394 25.6232 112.771 23.9255 113.525 22.4636C114.303 20.9781 115.341 19.8227 116.638 18.9975C117.935 18.1486 119.373 17.7242 120.953 17.7242C121.967 17.7242 122.898 17.8775 123.747 18.184C124.596 18.4905 125.327 18.8796 125.94 19.3512C126.576 19.8227 127.06 20.3061 127.39 20.8013C127.743 21.2728 127.92 21.6737 127.92 22.0038L126.647 22.4636V12.9848C126.647 12.3718 126.847 11.8648 127.248 11.464C127.649 11.0396 128.156 10.8274 128.769 10.8274ZM121.625 33.4632C122.662 33.4632 123.57 33.2038 124.348 32.6851C125.126 32.1663 125.727 31.4589 126.152 30.5629C126.6 29.6669 126.824 28.6648 126.824 27.5566C126.824 26.4248 126.6 25.4109 126.152 24.5149C125.727 23.6189 125.126 22.9116 124.348 22.3928C123.57 21.8741 122.662 21.6147 121.625 21.6147C120.611 21.6147 119.715 21.8741 118.937 22.3928C118.159 22.9116 117.546 23.6189 117.098 24.5149C116.673 25.4109 116.461 26.4248 116.461 27.5566C116.461 28.6648 116.673 29.6669 117.098 30.5629C117.546 31.4589 118.159 32.1663 118.937 32.6851C119.715 33.2038 120.611 33.4632 121.625 33.4632Z" fill="white"/>
</svg>
