<svg width="37" height="37" viewBox="0 0 37 37" fill="none" xmlns="http://www.w3.org/2000/svg">
<path fill-rule="evenodd" clip-rule="evenodd" d="M0.666656 18.3333C0.666656 8.20811 8.87477 0 19 0C29.1252 0 37.3333 8.20811 37.3333 18.3333C37.3333 28.4586 29.1252 36.6667 19 36.6667C8.87477 36.6667 0.666656 28.4586 0.666656 18.3333ZM25.9896 13.1771C26.7917 13.0625 27.4792 12.9479 28.1667 12.6042C27.7083 13.4062 27.0208 14.0938 26.2187 14.5521C26.4479 19.9375 22.5521 25.7812 15.5625 25.7812C13.5 25.7812 11.5521 25.0938 9.83332 24.0625C11.7812 24.2917 13.8437 23.7188 15.2187 22.6875C13.5 22.6875 12.125 21.5417 11.6667 20.0521C12.2396 20.1667 12.8125 20.0521 13.3854 19.9375C11.6667 19.4792 10.4062 17.875 10.4062 16.1563C10.9792 16.3854 11.5521 16.6146 12.125 16.6146C10.5208 15.4688 9.94791 13.2917 10.9792 11.5729C12.9271 13.8646 15.6771 15.3542 18.7708 15.4688C18.1979 13.1771 20.0312 10.8854 22.4375 10.8854C23.4687 10.8854 24.5 11.3438 25.1875 12.0312C26.1042 11.8021 26.9062 11.5729 27.5937 11.1146C27.3646 12.0312 26.7917 12.7188 25.9896 13.1771Z" fill="white"/>
</svg>
